# xmcd
#
# Track frame offsets: 
#        150
#        20888
#        42603
#        66988
#        86417
#        103810
#        122018
#        141915
#        162760
#        182325
#
# Disc length: 2679 seconds
#
# Revision: 0
# Processed by: cddbd v1.5.2PL0 Copyright (c) Steve Scherf et al.
# Submitted via: ExactAudioCopy v1.0b3
#
DISCID=8a0a750a
DTITLE=Phuong Mai - Thanh Pho Buon
DYEAR=1992
DGENRE=
TTITLE0=Xin lam chim rung nui
TTITLE1=Con tau dinh menh
TTITLE2=Loai hoa khong vo
TTITLE3=Thanh pho buon
TTITLE4=Tinh la soi to
TTITLE5=Tinh em bien rong song dai
TTITLE6=Chieu thuong do thi
TTITLE7=Con me tinh ai
TTITLE8=Nguoi xa ve thanh pho
TTITLE9=Tram nho ngan thuong
EXTD=
EXTT0=
EXTT1=
EXTT2=
EXTT3=
EXTT4=
EXTT5=
EXTT6=
EXTT7=
EXTT8=
EXTT9=
PLAYORDER=
